<svg version="1.1" width="174" height="25" viewBox="0 0 174 25" xmlns="http://www.w3.org/2000/svg" xmlns:xlink="http://www.w3.org/1999/xlink" fill="none" overflow="hidden"><path d=" M 28.8393 0.434143 L 31.7081 0.434143 C 31.7985 0.434143 31.8663 0.479321 31.8663 0.592268 L 31.8663 3.48661 C 31.8663 3.57696 31.7985 3.64473 31.7081 3.64473 L 28.8393 3.64473 C 28.7489 3.64473 28.6812 3.57696 28.6812 3.48661 L 28.6812 0.592268 C 28.6812 0.501911 28.7489 0.434143 28.8393 0.434143 Z" fill="#2F3337"/><path d=" M 40.7847 10.68 C 40.0868 10.6077 39.4369 10.5404 38.9355 10.4401 C 37.9867 10.2594 37.6931 9.89792 37.6931 9.33319 C 37.6931 8.47479 38.4837 7.88747 39.9972 7.88747 C 41.5559 7.88747 42.9564 8.4522 43.9955 9.33319 C 44.0633 9.40096 44.1536 9.40096 44.2214 9.31061 L 45.9156 7.32274 C 45.9834 7.25497 45.9834 7.16461 45.893 7.09684 C 45.0346 6.3288 43.3178 5.24451 40.3812 5.24451 C 37.0832 5.24451 34.8694 6.80318 34.8694 9.55908 C 34.8694 11.5695 35.9537 12.5183 37.3994 13.0153 C 38.3573 13.3346 39.3067 13.415 40.2213 13.4924 C 40.7949 13.541 41.3549 13.5885 41.8947 13.6929 C 42.9564 13.8737 43.2952 14.3029 43.2952 14.9805 C 43.2952 15.9067 42.4594 16.4714 40.8104 16.4714 C 38.8903 16.4714 37.422 15.8615 36.2699 14.7546 C 36.2022 14.6869 36.0892 14.6643 36.0215 14.7546 L 34.3724 16.7425 C 34.3684 16.7546 34.3637 16.7667 34.359 16.7786 C 34.3373 16.8337 34.3168 16.8861 34.3724 16.9232 C 35.2082 17.7816 36.9928 19.0918 40.5393 19.0918 C 44.6506 19.0918 46.2771 17.1039 46.2771 14.7095 C 46.1867 12.1795 44.4699 11.2533 42.979 10.9596 C 42.2693 10.8337 41.5016 10.7542 40.7847 10.68 Z" fill="#2F3337"/><path d=" M 31.6535 5.53271 L 28.9216 5.53271 C 28.8313 5.53271 28.7635 5.60047 28.7635 5.69083 L 28.7559 18.6177 C 28.7559 18.7081 28.8236 18.7758 28.914 18.7758 L 31.6459 18.7758 C 31.7363 18.7758 31.804 18.7081 31.804 18.6177 L 31.8116 5.69083 C 31.8116 5.60047 31.7665 5.53271 31.6535 5.53271 Z" fill="#2F3337"/><path d=" M 56.2866 5.20004 C 54.4117 5.20004 52.9886 5.83255 52.0172 6.87166 L 52.0172 5.67379 C 52.0172 5.58344 51.9495 5.51567 51.8591 5.51567 L 49.2839 5.51567 C 49.1936 5.51567 49.1258 5.58344 49.1258 5.67379 L 49.1258 24.2203 C 49.1258 24.3107 49.1936 24.3784 49.2839 24.3784 L 51.9946 24.3784 C 52.085 24.3784 52.1528 24.3107 52.1528 24.2203 L 52.1528 17.5113 C 53.1241 18.46 54.4795 19.0021 56.3092 19.0021 C 60.2624 19.0021 62.8827 15.9752 62.8827 12.0672 C 62.8601 8.24961 60.2624 5.20004 56.2866 5.20004 Z M 55.7897 16.2011 C 53.2145 16.2011 51.9043 14.3713 51.9043 12.1124 C 51.9043 9.87604 53.2145 8.06889 55.7897 8.06889 C 58.2067 8.06889 59.6525 9.89863 59.6525 12.1124 C 59.6525 14.3713 58.2067 16.2011 55.7897 16.2011 Z" fill="#2F3337" fill-rule="evenodd" clip-rule="evenodd"/><path d=" M 72.0479 5.24451 C 72.6804 5.24451 73.2904 5.38005 73.7421 5.53817 C 73.8325 5.56076 73.8325 5.62853 73.8325 5.76407 L 73.087 8.54256 C 73.0645 8.63292 72.9967 8.65551 72.9063 8.63292 C 72.4319 8.4748 71.935 8.38443 71.5284 8.38443 C 69.6083 8.38443 68.4562 9.96569 68.4562 11.7954 L 68.4562 18.6174 C 68.4562 18.7078 68.3884 18.7755 68.2981 18.7755 L 65.5874 18.7755 C 65.497 18.7755 65.4292 18.7078 65.4292 18.6174 L 65.4292 5.69448 C 65.4292 5.60413 65.497 5.53636 65.5874 5.53636 L 68.1626 5.53636 C 68.2529 5.53636 68.3207 5.60413 68.3207 5.69448 L 68.3207 7.32274 C 69.292 5.71889 70.7829 5.24451 72.0479 5.24451 Z" fill="#2F3337"/><path d=" M 109.053 5.54598 L 106.478 5.54598 C 106.387 5.54598 106.32 5.61374 106.32 5.7041 L 106.32 6.88187 C 105.326 5.84276 103.925 5.21025 102.05 5.21025 C 98.097 5.21025 95.4766 8.3749 95.4766 12.2377 C 95.4766 16.1231 98.097 19.1726 102.05 19.1726 C 103.857 19.1726 105.235 18.6079 106.207 17.6817 L 106.207 18.9467 C 106.207 21.2734 104.422 22.177 102.796 22.177 C 101.259 22.177 99.8364 21.4316 99.0683 19.9407 C 99.0457 19.8503 98.9102 19.8051 98.8424 19.8503 L 96.3124 21.0024 C 96.2447 21.025 96.2221 21.1379 96.2447 21.1831 C 96.9449 22.8321 98.865 24.8877 102.796 24.8877 C 107.042 24.8877 109.234 22.2448 109.234 18.9467 L 109.234 5.7041 C 109.211 5.61374 109.143 5.54598 109.053 5.54598 Z M 102.547 16.349 C 100.13 16.349 98.6843 14.5192 98.6843 12.2603 C 98.6843 10.0239 100.13 8.0791 102.547 8.0791 C 105.122 8.0791 106.432 10.0465 106.432 12.2603 C 106.432 14.5192 105.122 16.349 102.547 16.349 Z" fill="#2F3337" fill-rule="evenodd" clip-rule="evenodd"/><path d=" M 75.7744 5.56262 L 78.4851 5.56262 C 78.5755 5.56262 78.6433 5.63039 78.6433 5.72074 L 78.6433 18.6553 C 78.6433 18.7456 78.5755 18.8134 78.4851 18.8134 L 75.7744 18.8134 C 75.6841 18.8134 75.6163 18.7456 75.6163 18.6553 L 75.6163 5.72074 C 75.6163 5.63039 75.6841 5.56262 75.7744 5.56262 Z" fill="#2F3337"/><path d=" M 88.5182 5.28778 C 86.854 5.28778 85.5227 5.81751 84.5686 6.74454 L 84.5686 5.71101 C 84.5686 5.62272 84.5021 5.5565 84.4133 5.5565 L 81.8838 5.5565 C 81.7951 5.5565 81.7285 5.62272 81.7285 5.71101 L 81.7285 18.6553 C 81.7285 18.7436 81.7951 18.8098 81.8838 18.8098 L 84.5464 18.8098 C 84.6352 18.8098 84.7018 18.7436 84.7018 18.6553 L 84.7018 11.3935 C 84.7018 9.64984 85.6337 8.06887 87.5641 8.06887 C 89.1838 8.06887 90.271 9.23046 90.271 11.1728 L 90.271 18.6553 C 90.271 18.7436 90.3376 18.8098 90.4264 18.8098 L 93.089 18.8098 C 93.1777 18.8098 93.2443 18.7436 93.2443 18.6553 L 93.2443 10.4444 C 93.2221 7.75164 92.0239 5.28778 88.5182 5.28778 Z" fill="#2F3337"/><path d=" M 75.7147 0.442768 L 78.5729 0.442768 C 78.6632 0.442768 78.731 0.487946 78.731 0.600893 L 78.731 3.49523 C 78.731 3.58559 78.6632 3.65336 78.5729 3.65336 L 75.7147 3.65336 C 75.6243 3.65336 75.5566 3.58559 75.5566 3.49523 L 75.5566 0.600893 C 75.5566 0.510536 75.6243 0.442768 75.7147 0.442768 Z" fill="#2F3337"/><path d=" M 9.87092 6.35988 L 9.89293 6.35988 L 12.2037 6.35988 L 12.2257 6.35988 C 12.6219 6.35988 12.908 6.07378 12.908 5.67764 L 12.908 0.725937 C 12.908 0.329801 12.6219 0.0437012 12.2257 0.0437012 L 12.2037 0.0437012 L 9.89293 0.0437012 L 9.87092 0.0437012 C 9.47479 0.0437012 9.18869 0.329801 9.18869 0.725937 L 9.18869 5.67764 C 9.16668 6.09579 9.45278 6.35988 9.87092 6.35988 Z" fill="#B8195B"/><path d=" M 6.76818 9.00061 L 6.79018 8.9786 L 8.22068 7.17397 L 8.24268 7.15197 C 8.48477 6.84386 8.44075 6.44772 8.13264 6.18363 L 4.25931 3.10257 C 3.95121 2.86049 3.55507 2.90451 3.29098 3.21261 L 3.26897 3.23462 L 1.83848 5.03924 L 1.81647 5.06125 C 1.57439 5.36935 1.6184 5.76549 1.92651 6.02958 L 5.79984 9.11064 C 6.12996 9.35273 6.52609 9.30871 6.76818 9.00061 Z" fill="#B8195B"/><path d=" M 6.89887 13.0502 L 6.89887 13.0282 L 6.39269 10.7834 L 6.39269 10.7614 C 6.30466 10.3653 5.97455 10.1672 5.57842 10.2552 L 0.758753 11.3556 C 0.362616 11.4436 0.164551 11.7738 0.252581 12.1699 L 0.252581 12.1919 L 0.758753 14.4367 L 0.758753 14.4587 C 0.846783 14.8548 1.1769 15.0529 1.57304 14.9649 L 6.39269 13.8645 C 6.78883 13.7765 6.9869 13.4463 6.89887 13.0502 Z" fill="#B8195B"/><path d=" M 10.1565 15.4709 L 10.1345 15.4489 L 8.06581 14.4585 L 8.0438 14.4365 C 7.66968 14.2605 7.29555 14.3925 7.14149 14.7667 L 5.00676 19.2122 C 4.8307 19.5863 4.96274 19.9604 5.33687 20.1145 L 5.35888 20.1365 L 7.42759 21.1268 L 7.4496 21.1488 C 7.82373 21.3249 8.19786 21.1929 8.35191 20.8187 L 10.4866 16.3732 C 10.6407 16.0211 10.5087 15.647 10.1565 15.4709 Z" fill="#B8195B"/><path d=" M 14.0727 14.4591 L 14.0507 14.4811 L 11.982 15.4715 L 11.96 15.4935 C 11.5859 15.6695 11.4758 16.0437 11.6299 16.4178 L 13.7866 20.8633 C 13.9627 21.2375 14.3368 21.3475 14.711 21.1934 L 14.733 21.1714 L 16.8017 20.1811 L 16.8237 20.1591 C 17.1978 19.983 17.3079 19.6089 17.1538 19.2348 L 14.9971 14.7892 C 14.799 14.4151 14.4249 14.2831 14.0727 14.4591 Z" fill="#B8195B"/><path d=" M 15.7011 10.7397 L 15.7011 10.7617 L 15.195 13.0065 L 15.195 13.0285 C 15.1069 13.4246 15.305 13.7547 15.7011 13.8428 L 20.5208 14.9432 C 20.9169 15.0312 21.247 14.8331 21.3351 14.437 L 21.3351 14.415 L 21.8413 12.1702 L 21.8413 12.1482 C 21.9293 11.7521 21.7312 11.4219 21.3351 11.3339 L 16.5154 10.2335 C 16.1413 10.1455 15.8112 10.3436 15.7011 10.7397 Z" fill="#B8195B"/><path d=" M 13.8311 7.15197 L 13.8531 7.17397 L 15.2836 8.9786 L 15.3056 9.00061 C 15.5477 9.30871 15.9438 9.35273 16.274 9.11064 L 20.1473 6.02958 C 20.4554 5.7875 20.4994 5.39136 20.2573 5.06125 L 20.2353 5.03924 L 18.8048 3.23462 L 18.7828 3.21261 C 18.5407 2.90451 18.1446 2.86049 17.8145 3.10257 L 13.9412 6.18363 C 13.6331 6.44772 13.589 6.82186 13.8311 7.15197 Z" fill="#B8195B"/><path d=" M 122.168 18.9164 C 118.884 18.9164 117.188 17.7 116.364 16.8565 L 117.811 15.0179 C 119.002 16.1776 120.509 16.8093 122.437 16.8093 C 123.284 16.8093 123.967 16.6578 124.448 16.3438 C 124.947 16.0181 125.213 15.5261 125.213 14.9253 C 125.213 14.5138 125.113 14.1299 124.822 13.8266 C 124.542 13.5351 124.123 13.3592 123.57 13.2596 C 123.018 13.1472 122.449 13.0964 121.886 13.0461 L 121.877 13.0453 C 120.964 12.9637 120.055 12.8812 119.143 12.5607 C 118.456 12.3116 117.884 11.9595 117.483 11.4438 C 117.085 10.9329 116.833 10.2325 116.833 9.23963 C 116.833 7.89061 117.342 6.85544 118.224 6.14854 C 119.116 5.43371 120.414 5.03531 122.011 5.03531 C 124.734 5.03531 126.351 6.05032 127.189 6.80342 L 125.688 8.6596 C 124.614 7.74487 123.197 7.16605 121.629 7.16605 C 120.843 7.16605 120.204 7.32583 119.752 7.63918 C 119.286 7.9615 119.033 8.43853 119.033 9.00273 C 119.033 9.35958 119.124 9.69659 119.391 9.96585 C 119.644 10.221 120.021 10.3788 120.515 10.4781 C 121.027 10.5861 121.684 10.6579 122.368 10.7326 L 122.381 10.7339 C 123.095 10.8119 123.846 10.8941 124.538 11.0235 C 125.245 11.1707 125.982 11.4717 126.549 12.0296 C 127.109 12.5798 127.527 13.4019 127.57 14.6467 C 127.569 15.8245 127.191 16.8759 126.355 17.6382 C 125.513 18.4066 124.167 18.9164 122.168 18.9164 Z" fill="#B8195B"/><path d=" M 166.862 19.0193 C 164.818 19.0193 163.157 18.3619 161.878 17.0469 C 160.598 15.732 159.958 14.0795 159.958 12.0893 C 159.958 10.1169 160.607 8.47324 161.904 7.15831 C 163.201 5.82562 164.863 5.15927 166.889 5.15927 C 168.683 5.15927 170.185 5.76343 171.393 6.97174 C 172.619 8.16228 173.232 9.78819 173.232 11.8494 C 173.232 12.116 173.223 12.347 173.205 12.5424 L 162.277 12.5424 C 162.313 13.7863 162.757 14.8258 163.61 15.6609 C 164.481 16.4961 165.574 16.9137 166.889 16.9137 C 168.754 16.9137 170.14 16.1407 171.047 14.5948 L 172.859 15.8475 C 171.562 17.9621 169.563 19.0193 166.862 19.0193 Z M 162.437 10.6767 L 170.887 10.6767 C 170.709 9.6105 170.238 8.76644 169.474 8.14451 C 168.728 7.50482 167.839 7.18497 166.809 7.18497 C 165.76 7.18497 164.818 7.50482 163.983 8.14451 C 163.166 8.76644 162.651 9.6105 162.437 10.6767 Z" fill="#B8195B"/><path d=" M 135.501 18.9535 C 134.053 18.9535 132.878 18.4678 131.978 17.4964 C 131.077 16.5073 130.626 15.2002 130.626 13.5753 L 130.626 5.44168 L 132.905 5.44168 L 132.905 13.2309 C 132.905 14.3436 133.17 15.2267 133.7 15.8802 C 134.247 16.5338 134.98 16.8605 135.899 16.8605 C 136.958 16.8605 137.833 16.4278 138.522 15.5623 C 139.228 14.6792 139.581 13.4958 139.581 12.0122 L 139.581 5.44168 L 141.86 5.44168 L 141.86 18.6886 L 139.581 18.6886 L 139.581 16.6486 C 138.716 18.1852 137.356 18.9535 135.501 18.9535 Z" fill="#B8195B"/><path d=" M 156.832 18.8211 C 155.613 18.8211 154.633 18.4766 153.891 17.7878 C 153.149 17.099 152.778 16.0922 152.778 14.7675 L 152.79 7.48034 L 149.981 7.48034 L 149.981 5.44293 L 152.778 5.44169 L 152.778 1.75906 L 155.075 1.75906 L 155.075 5.44169 L 159.15 5.44169 L 159.15 7.48034 L 155.075 7.48034 L 155.075 14.6113 C 155.075 15.4414 155.233 15.8891 155.587 16.2247 C 155.94 16.5603 156.496 16.7281 157.256 16.7281 C 157.927 16.7281 158.465 16.6397 158.872 16.4631 L 158.872 18.5031 C 158.236 18.7151 157.556 18.8211 156.832 18.8211 Z" fill="#B8195B"/><path d=" M 145.68 18.6885 L 145.68 5.44163 L 147.959 5.44163 L 147.959 18.6885 L 145.68 18.6885 Z" fill="#B8195B"/><path d=" M 145.469 0.787384 L 148.178 0.787384 L 148.178 3.49715 L 145.469 3.49715 L 145.469 0.787384 Z" fill="#B8195B"/></svg>