<svg version="1.1" width="19" height="10" viewBox="0 0 19 10" xmlns="http://www.w3.org/2000/svg" xmlns:xlink="http://www.w3.org/1999/xlink" fill="none" overflow="hidden"><path d=" M 4.21684 8.60449 L 4.21684 5.34082 C 4.21684 5.09082 4.16606 4.87402 4.0645 4.69043 C 3.96684 4.50293 3.81841 4.3584 3.61919 4.25684 C 3.41997 4.15527 3.17387 4.10449 2.88091 4.10449 C 2.60747 4.10449 2.36723 4.15137 2.1602 4.24512 C 1.95708 4.33887 1.79692 4.46191 1.67973 4.61426 C 1.56645 4.7666 1.50981 4.93066 1.50981 5.10645 L 0.425827 5.10645 C 0.425827 4.87988 0.484421 4.65527 0.601608 4.43262 C 0.718796 4.20996 0.886765 4.00879 1.10551 3.8291 C 1.32817 3.64551 1.5938 3.50098 1.90239 3.39551 C 2.21489 3.28613 2.56255 3.23145 2.94536 3.23145 C 3.4063 3.23145 3.81255 3.30957 4.16411 3.46582 C 4.51958 3.62207 4.79692 3.8584 4.99614 4.1748 C 5.19926 4.4873 5.30083 4.87988 5.30083 5.35254 L 5.30083 8.30566 C 5.30083 8.5166 5.31841 8.74121 5.35356 8.97949 C 5.39262 9.21777 5.44926 9.42285 5.52348 9.59473 L 5.52348 9.68848 L 4.39262 9.68848 C 4.33794 9.56348 4.29497 9.39746 4.26372 9.19043 C 4.23247 8.97949 4.21684 8.78418 4.21684 8.60449 Z M 4.40434 5.84473 L 4.41606 6.60645 L 3.32036 6.60645 C 3.01176 6.60645 2.73637 6.63184 2.49419 6.68262 C 2.252 6.72949 2.04887 6.80176 1.88481 6.89941 C 1.72075 6.99707 1.59575 7.12012 1.50981 7.26855 C 1.42387 7.41309 1.38091 7.58301 1.38091 7.77832 C 1.38091 7.97754 1.42583 8.15918 1.51567 8.32324 C 1.60551 8.4873 1.74028 8.61816 1.91997 8.71582 C 2.10356 8.80957 2.32817 8.85645 2.5938 8.85645 C 2.92583 8.85645 3.2188 8.78613 3.4727 8.64551 C 3.72661 8.50488 3.92778 8.33301 4.07622 8.12988 C 4.22856 7.92676 4.31059 7.72949 4.32231 7.53809 L 4.7852 8.05957 C 4.75786 8.22363 4.68364 8.40527 4.56255 8.60449 C 4.44145 8.80371 4.27934 8.99512 4.07622 9.17871 C 3.877 9.3584 3.63872 9.50879 3.36137 9.62988 C 3.08794 9.74707 2.77934 9.80566 2.43559 9.80566 C 2.00591 9.80566 1.62895 9.72168 1.30473 9.55371 C 0.984421 9.38574 0.734421 9.16113 0.554733 8.87988 C 0.378952 8.59473 0.291061 8.27637 0.291061 7.9248 C 0.291061 7.58496 0.357468 7.28613 0.49028 7.02832 C 0.623093 6.7666 0.814499 6.5498 1.0645 6.37793 C 1.3145 6.20215 1.61528 6.06934 1.96684 5.97949 C 2.31841 5.88965 2.71098 5.84473 3.14458 5.84473 L 4.40434 5.84473 Z" fill="#7F8FA3"/><path d=" M 7.00005 0.688477 L 8.08989 0.688477 L 8.08989 8.45801 L 7.99614 9.68848 L 7.00005 9.68848 L 7.00005 0.688477 Z M 12.3731 6.46582 L 12.3731 6.58887 C 12.3731 7.0498 12.3184 7.47754 12.209 7.87207 C 12.0997 8.2627 11.9395 8.60254 11.7286 8.8916 C 11.5176 9.18066 11.2598 9.40527 10.9551 9.56543 C 10.6504 9.72559 10.3008 9.80566 9.9063 9.80566 C 9.50395 9.80566 9.15044 9.7373 8.84575 9.60059 C 8.54497 9.45996 8.29106 9.25879 8.08403 8.99707 C 7.877 8.73535 7.71098 8.41895 7.58598 8.04785 C 7.46489 7.67676 7.38091 7.25879 7.33403 6.79395 L 7.33403 6.25488 C 7.38091 5.78613 7.46489 5.36621 7.58598 4.99512 C 7.71098 4.62402 7.877 4.30762 8.08403 4.0459 C 8.29106 3.78027 8.54497 3.5791 8.84575 3.44238 C 9.14653 3.30176 9.49614 3.23145 9.89458 3.23145 C 10.293 3.23145 10.6465 3.30957 10.9551 3.46582 C 11.2637 3.61816 11.5215 3.83691 11.7286 4.12207 C 11.9395 4.40723 12.0997 4.74902 12.209 5.14746 C 12.3184 5.54199 12.3731 5.98145 12.3731 6.46582 Z M 11.2832 6.58887 L 11.2832 6.46582 C 11.2832 6.14941 11.254 5.85254 11.1954 5.5752 C 11.1368 5.29395 11.043 5.04785 10.9141 4.83691 C 10.7852 4.62207 10.6153 4.4541 10.4043 4.33301 C 10.1934 4.20801 9.93364 4.14551 9.62505 4.14551 C 9.35161 4.14551 9.11333 4.19238 8.9102 4.28613 C 8.71098 4.37988 8.54106 4.50684 8.40044 4.66699 C 8.25981 4.82324 8.14458 5.00293 8.05473 5.20605 C 7.9688 5.40527 7.90434 5.6123 7.86137 5.82715 L 7.86137 7.23926 C 7.92387 7.5127 8.02544 7.77637 8.16606 8.03027 C 8.31059 8.28027 8.502 8.48535 8.74028 8.64551 C 8.98247 8.80566 9.2813 8.88574 9.63676 8.88574 C 9.92973 8.88574 10.1797 8.82715 10.3868 8.70996 C 10.5977 8.58887 10.7676 8.42285 10.8965 8.21191 C 11.0293 8.00098 11.127 7.75684 11.1895 7.47949 C 11.252 7.20215 11.2832 6.90527 11.2832 6.58887 Z" fill="#7F8FA3"/><path d=" M 16.2813 8.91504 C 16.5391 8.91504 16.7774 8.8623 16.9961 8.75684 C 17.2149 8.65137 17.3946 8.50684 17.5352 8.32324 C 17.6758 8.13574 17.7559 7.92285 17.7754 7.68457 L 18.8067 7.68457 C 18.7872 8.05957 18.6602 8.40918 18.4258 8.7334 C 18.1954 9.05371 17.8926 9.31348 17.5176 9.5127 C 17.1426 9.70801 16.7305 9.80566 16.2813 9.80566 C 15.8047 9.80566 15.3887 9.72168 15.0332 9.55371 C 14.6817 9.38574 14.3887 9.15527 14.1543 8.8623 C 13.9239 8.56934 13.75 8.2334 13.6329 7.85449 C 13.5196 7.47168 13.4629 7.06738 13.4629 6.6416 L 13.4629 6.39551 C 13.4629 5.96973 13.5196 5.56738 13.6329 5.18848 C 13.75 4.80566 13.9239 4.46777 14.1543 4.1748 C 14.3887 3.88184 14.6817 3.65137 15.0332 3.4834 C 15.3887 3.31543 15.8047 3.23145 16.2813 3.23145 C 16.7774 3.23145 17.211 3.33301 17.5821 3.53613 C 17.9532 3.73535 18.2442 4.00879 18.4551 4.35645 C 18.67 4.7002 18.7872 5.09082 18.8067 5.52832 L 17.7754 5.52832 C 17.7559 5.2666 17.6817 5.03027 17.5528 4.81934 C 17.4278 4.6084 17.2559 4.44043 17.0372 4.31543 C 16.8223 4.18652 16.5704 4.12207 16.2813 4.12207 C 15.9493 4.12207 15.67 4.18848 15.4434 4.32129 C 15.2207 4.4502 15.043 4.62598 14.9102 4.84863 C 14.7813 5.06738 14.6875 5.31152 14.629 5.58105 C 14.5743 5.84668 14.5469 6.11816 14.5469 6.39551 L 14.5469 6.6416 C 14.5469 6.91895 14.5743 7.19238 14.629 7.46191 C 14.6836 7.73145 14.7754 7.97559 14.9043 8.19434 C 15.0372 8.41309 15.2149 8.58887 15.4375 8.72168 C 15.6641 8.85059 15.9454 8.91504 16.2813 8.91504 Z" fill="#7F8FA3"/></svg>